<svg width="10" height="10" viewBox="0 0 10 10" fill="none" xmlns="http://www.w3.org/2000/svg">
<path d="M9.02518 1.10364C8.76518 0.843644 8.34518 0.843644 8.08518 1.10364L4.82518 4.35698L1.56518 1.09698C1.30518 0.836978 0.885176 0.836978 0.625176 1.09698C0.365176 1.35698 0.365176 1.77698 0.625176 2.03698L3.88518 5.29698L0.625176 8.55698C0.365176 8.81698 0.365176 9.23698 0.625176 9.49698C0.885176 9.75698 1.30518 9.75698 1.56518 9.49698L4.82518 6.23698L8.08518 9.49698C8.34518 9.75698 8.76518 9.75698 9.02518 9.49698C9.28518 9.23698 9.28518 8.81698 9.02518 8.55698L5.76518 5.29698L9.02518 2.03698C9.27851 1.78364 9.27851 1.35698 9.02518 1.10364Z" fill="#8E8D93"/>
</svg>
