<svg width="366" height="63" viewBox="0 0 366 63" fill="none" xmlns="http://www.w3.org/2000/svg">
<path d="M88.5173 23.5861L81.9273 22.2961C76.3873 21.2261 74.2273 19.4661 74.2273 15.9961C74.2273 12.9561 76.9173 9.41611 84.5173 9.41611C91.0173 9.41611 95.3273 12.3361 96.6473 17.6461L96.8873 18.6261H102.027L101.737 17.0961C100.287 9.33611 93.6873 4.51611 84.5073 4.51611C75.3273 4.51611 68.9573 9.04611 68.9573 16.0561C68.9573 22.2161 72.8873 25.9361 80.9773 27.4161L87.6173 28.6561C94.2673 29.8861 97.1073 32.0661 97.1073 35.9261C97.1073 42.1861 89.8873 43.1261 85.5873 43.1261C78.8273 43.1261 73.8673 39.7261 72.6473 34.2561L72.4173 33.2461H67.1973L67.5473 34.8161C69.3673 43.0861 76.1473 48.0261 85.6873 48.0261C95.9173 48.0261 102.267 43.4061 102.267 35.9761C102.267 27.4061 95.3073 24.9061 88.5073 23.5861H88.5173Z" fill="white"/>
<path d="M128.197 35.716C128.197 40.696 125.557 43.116 120.127 43.116C114.697 43.116 112.057 40.696 112.057 35.716V17.906H106.897V35.056C106.897 43.426 111.597 48.036 120.127 48.036C128.657 48.036 133.357 43.426 133.357 35.056V17.906H128.197V35.716Z" fill="white"/>
<path d="M168.197 17.126C164.487 17.126 161.147 18.846 159.257 21.526C157.407 18.756 154.217 17.126 150.387 17.126C147.817 17.126 145.407 17.986 143.657 19.416V17.896H138.497V47.246H143.657V27.396C144.317 24.036 146.737 22.036 150.137 22.036C153.857 22.036 156.257 24.436 156.257 28.156V47.256H161.417V27.706C162.067 24.156 164.537 22.046 168.047 22.046C171.947 22.046 174.007 24.126 174.007 28.056V47.256H179.167V27.996C179.167 21.396 174.857 17.126 168.197 17.126Z" fill="white"/>
<path d="M213.997 17.1262C210.287 17.1262 206.947 18.8462 205.057 21.5262C203.207 18.7562 200.017 17.1262 196.187 17.1262C193.617 17.1262 191.207 17.9862 189.457 19.4162V17.8962H184.297V47.2462H189.457V27.3962C190.117 24.0362 192.537 22.0362 195.937 22.0362C199.657 22.0362 202.057 24.4362 202.057 28.1562V47.2562H207.217V27.7062C207.867 24.1562 210.337 22.0462 213.847 22.0462C217.747 22.0462 219.807 24.1262 219.807 28.0562V47.2562H224.967V27.9962C224.967 21.3962 220.657 17.1262 213.997 17.1262Z" fill="white"/>
<path d="M235.067 15.3262H229.807V47.2462H235.067V15.3262Z" fill="white"/>
<path d="M235.797 3.02612H229.087V9.98612H235.797V3.02612Z" fill="white"/>
<path d="M253.987 7.35608H248.717V17.9061H239.717V22.8061H248.717V47.2561H253.987V22.8061H262.997V17.9061H253.987V7.35608Z" fill="white"/>
<path d="M288.187 23.4661H266.297V28.4761H288.187V23.4661Z" fill="white"/>
<path d="M319.348 17.9062H314.188V35.7162C314.188 36.1562 314.158 36.5763 314.118 36.9862L319.348 30.7862V17.9062Z" fill="white"/>
<path d="M339.097 17.1262C335.487 17.1262 332.117 18.3862 329.637 20.5562V17.8962H324.477V26.6962L319.347 32.7962L312.887 40.4762C312.877 40.4962 312.857 40.5062 312.847 40.5162L312.327 41.1362V41.1162C310.997 42.4462 308.937 43.1162 306.107 43.1162C300.677 43.1162 298.037 40.6962 298.037 35.7162V17.9062H292.877V35.0562C292.877 43.4262 297.577 48.0362 306.107 48.0362C311.377 48.0362 315.177 46.2762 317.317 42.9662L324.467 34.1262V62.0362H329.627V44.5862C332.127 46.8062 335.417 48.0362 339.087 48.0362C347.527 48.0362 353.657 41.5362 353.657 32.5862C353.657 23.6362 347.527 17.1362 339.087 17.1362L339.097 17.1262ZM338.947 43.1262C334.867 43.1262 331.237 40.8662 329.637 37.3562V27.7462C331.497 24.2162 335.037 22.0362 338.947 22.0362C344.667 22.0362 348.517 26.2762 348.517 32.5762C348.517 38.8762 344.677 43.1162 338.947 43.1162V43.1262Z" fill="white"/>
<path d="M364.477 3.74609H359.317V38.9161H364.477V3.74609Z" fill="white"/>
<path d="M365.507 43.8961H358.287V51.1161H365.507V43.8961Z" fill="white"/>
<path d="M43.7572 0.376221H10.5772C4.81135 0.376221 0.137207 5.05037 0.137207 10.8162V43.9962C0.137207 49.7621 4.81135 54.4362 10.5772 54.4362H43.7572C49.5231 54.4362 54.1972 49.7621 54.1972 43.9962V10.8162C54.1972 5.05037 49.5231 0.376221 43.7572 0.376221Z" fill="black"/>
<path d="M24.9375 45.2463V42.4263C24.9375 42.2763 25.0275 42.1363 25.1675 42.0763L29.4975 40.2163C29.5975 40.1763 29.6975 40.1763 29.7975 40.2163L33.0775 41.6263C33.3775 41.7563 33.3775 42.1863 33.0775 42.3163L25.4675 45.5863C25.2175 45.6963 24.9375 45.5063 24.9375 45.2363V45.2463Z" fill="white"/>
<path d="M24.6075 29.7562L33.6375 33.6362C33.7775 33.6962 33.8675 33.8362 33.8675 33.9862V40.4462C33.8675 40.7162 33.5875 40.8962 33.3375 40.7962L25.3975 37.3762L16.7875 33.6762C16.4875 33.5462 16.4875 33.1162 16.7875 32.9862L24.2975 29.7562C24.3975 29.7162 24.4975 29.7162 24.5975 29.7562H24.6075Z" fill="white"/>
<path d="M38.3473 4.87624V22.5162C38.3473 22.6662 38.2573 22.8062 38.1173 22.8662L26.5773 27.8262L16.5173 32.1562C16.2673 32.2662 15.9873 32.0762 15.9873 31.8062V23.4462C15.9873 23.3362 16.0373 23.2362 16.1173 23.1562L37.7173 4.58624C37.9573 4.37624 38.3373 4.54624 38.3373 4.87624H38.3473Z" fill="white"/>
<path d="M25.1575 46.6762L25.4975 46.5362L26.1775 46.2462C26.2975 46.1962 26.4375 46.2862 26.4375 46.4162V49.6462C26.4375 49.7262 26.3975 49.7862 26.3275 49.8162L25.8775 50.0062L25.1975 50.2962C25.0775 50.3462 24.9375 50.2562 24.9375 50.1262V47.0162C24.9375 46.8662 25.0275 46.7262 25.1675 46.6662L25.1575 46.6762Z" fill="white"/>
</svg>
